<mxfile host="app.diagrams.net" modified="2023-06-15T21:06:40.833Z" agent="Mozilla/5.0 (X11; Linux x86_64) AppleWebKit/537.36 (KHTML, like Gecko) Chrome/114.0.0.0 Safari/537.36" etag="EANJrfprut8SaXknnLED" version="21.3.7" type="github">
  <diagram name="PÃ¡gina-1" id="5CUUD3opjcCO9jv2PS6_">
    <mxGraphModel dx="880" dy="492" grid="1" gridSize="10" guides="1" tooltips="1" connect="1" arrows="1" fold="1" page="1" pageScale="1" pageWidth="827" pageHeight="1169" math="0" shadow="0">
      <root>
        <mxCell id="0" />
        <mxCell id="1" parent="0" />
        <mxCell id="QTWqeJgQUA_3JUvdfC61-2" value="Usuario" style="shape=table;startSize=30;container=1;collapsible=1;childLayout=tableLayout;fixedRows=1;rowLines=0;fontStyle=1;align=center;resizeLast=1;html=1;strokeColor=default;fontFamily=Helvetica;fontSize=12;fontColor=default;fillColor=default;movable=1;resizable=1;rotatable=1;deletable=1;editable=1;locked=0;connectable=1;" vertex="1" parent="1">
          <mxGeometry x="20" y="150" width="180" height="270" as="geometry" />
        </mxCell>
        <mxCell id="QTWqeJgQUA_3JUvdfC61-3" value="" style="shape=tableRow;horizontal=0;startSize=0;swimlaneHead=0;swimlaneBody=0;fillColor=none;collapsible=0;dropTarget=0;points=[[0,0.5],[1,0.5]];portConstraint=eastwest;top=0;left=0;right=0;bottom=1;strokeColor=default;fontFamily=Helvetica;fontSize=12;fontColor=default;html=1;movable=1;resizable=1;rotatable=1;deletable=1;editable=1;locked=0;connectable=1;" vertex="1" parent="QTWqeJgQUA_3JUvdfC61-2">
          <mxGeometry y="30" width="180" height="30" as="geometry" />
        </mxCell>
        <mxCell id="QTWqeJgQUA_3JUvdfC61-4" value="PK" style="shape=partialRectangle;connectable=1;fillColor=none;top=0;left=0;bottom=0;right=0;fontStyle=1;overflow=hidden;whiteSpace=wrap;html=1;strokeColor=default;fontFamily=Helvetica;fontSize=12;fontColor=default;startSize=30;movable=1;resizable=1;rotatable=1;deletable=1;editable=1;locked=0;" vertex="1" parent="QTWqeJgQUA_3JUvdfC61-3">
          <mxGeometry width="30" height="30" as="geometry">
            <mxRectangle width="30" height="30" as="alternateBounds" />
          </mxGeometry>
        </mxCell>
        <mxCell id="QTWqeJgQUA_3JUvdfC61-5" value="login (VARCHAR(50))" style="shape=partialRectangle;connectable=1;fillColor=none;top=0;left=0;bottom=0;right=0;align=left;spacingLeft=6;fontStyle=5;overflow=hidden;whiteSpace=wrap;html=1;strokeColor=default;fontFamily=Helvetica;fontSize=12;fontColor=default;startSize=30;movable=1;resizable=1;rotatable=1;deletable=1;editable=1;locked=0;" vertex="1" parent="QTWqeJgQUA_3JUvdfC61-3">
          <mxGeometry x="30" width="150" height="30" as="geometry">
            <mxRectangle width="150" height="30" as="alternateBounds" />
          </mxGeometry>
        </mxCell>
        <mxCell id="QTWqeJgQUA_3JUvdfC61-6" value="" style="shape=tableRow;horizontal=0;startSize=0;swimlaneHead=0;swimlaneBody=0;fillColor=none;collapsible=0;dropTarget=0;points=[[0,0.5],[1,0.5]];portConstraint=eastwest;top=0;left=0;right=0;bottom=0;strokeColor=default;fontFamily=Helvetica;fontSize=12;fontColor=default;html=1;movable=1;resizable=1;rotatable=1;deletable=1;editable=1;locked=0;connectable=1;" vertex="1" parent="QTWqeJgQUA_3JUvdfC61-2">
          <mxGeometry y="60" width="180" height="30" as="geometry" />
        </mxCell>
        <mxCell id="QTWqeJgQUA_3JUvdfC61-7" value="" style="shape=partialRectangle;connectable=1;fillColor=none;top=0;left=0;bottom=0;right=0;editable=1;overflow=hidden;whiteSpace=wrap;html=1;strokeColor=default;fontFamily=Helvetica;fontSize=12;fontColor=default;startSize=30;movable=1;resizable=1;rotatable=1;deletable=1;locked=0;" vertex="1" parent="QTWqeJgQUA_3JUvdfC61-6">
          <mxGeometry width="30" height="30" as="geometry">
            <mxRectangle width="30" height="30" as="alternateBounds" />
          </mxGeometry>
        </mxCell>
        <mxCell id="QTWqeJgQUA_3JUvdfC61-8" value="senha(VARCHAR(30))" style="shape=partialRectangle;connectable=1;fillColor=none;top=0;left=0;bottom=0;right=0;align=left;spacingLeft=6;overflow=hidden;whiteSpace=wrap;html=1;strokeColor=default;fontFamily=Helvetica;fontSize=12;fontColor=default;startSize=30;movable=1;resizable=1;rotatable=1;deletable=1;editable=1;locked=0;" vertex="1" parent="QTWqeJgQUA_3JUvdfC61-6">
          <mxGeometry x="30" width="150" height="30" as="geometry">
            <mxRectangle width="150" height="30" as="alternateBounds" />
          </mxGeometry>
        </mxCell>
        <mxCell id="QTWqeJgQUA_3JUvdfC61-125" style="shape=tableRow;horizontal=0;startSize=0;swimlaneHead=0;swimlaneBody=0;fillColor=none;collapsible=0;dropTarget=0;points=[[0,0.5],[1,0.5]];portConstraint=eastwest;top=0;left=0;right=0;bottom=0;strokeColor=default;fontFamily=Helvetica;fontSize=12;fontColor=default;html=1;movable=1;resizable=1;rotatable=1;deletable=1;editable=1;locked=0;connectable=1;" vertex="1" parent="QTWqeJgQUA_3JUvdfC61-2">
          <mxGeometry y="90" width="180" height="30" as="geometry" />
        </mxCell>
        <mxCell id="QTWqeJgQUA_3JUvdfC61-126" style="shape=partialRectangle;connectable=1;fillColor=none;top=0;left=0;bottom=0;right=0;editable=1;overflow=hidden;whiteSpace=wrap;html=1;strokeColor=default;fontFamily=Helvetica;fontSize=12;fontColor=default;startSize=30;movable=1;resizable=1;rotatable=1;deletable=1;locked=0;" vertex="1" parent="QTWqeJgQUA_3JUvdfC61-125">
          <mxGeometry width="30" height="30" as="geometry">
            <mxRectangle width="30" height="30" as="alternateBounds" />
          </mxGeometry>
        </mxCell>
        <mxCell id="QTWqeJgQUA_3JUvdfC61-127" value="id INT" style="shape=partialRectangle;connectable=1;fillColor=none;top=0;left=0;bottom=0;right=0;align=left;spacingLeft=6;overflow=hidden;whiteSpace=wrap;html=1;strokeColor=default;fontFamily=Helvetica;fontSize=12;fontColor=default;startSize=30;movable=1;resizable=1;rotatable=1;deletable=1;editable=1;locked=0;" vertex="1" parent="QTWqeJgQUA_3JUvdfC61-125">
          <mxGeometry x="30" width="150" height="30" as="geometry">
            <mxRectangle width="150" height="30" as="alternateBounds" />
          </mxGeometry>
        </mxCell>
        <mxCell id="QTWqeJgQUA_3JUvdfC61-9" value="" style="shape=tableRow;horizontal=0;startSize=0;swimlaneHead=0;swimlaneBody=0;fillColor=none;collapsible=0;dropTarget=0;points=[[0,0.5],[1,0.5]];portConstraint=eastwest;top=0;left=0;right=0;bottom=0;strokeColor=default;fontFamily=Helvetica;fontSize=12;fontColor=default;html=1;movable=1;resizable=1;rotatable=1;deletable=1;editable=1;locked=0;connectable=1;" vertex="1" parent="QTWqeJgQUA_3JUvdfC61-2">
          <mxGeometry y="120" width="180" height="30" as="geometry" />
        </mxCell>
        <mxCell id="QTWqeJgQUA_3JUvdfC61-10" value="" style="shape=partialRectangle;connectable=1;fillColor=none;top=0;left=0;bottom=0;right=0;editable=1;overflow=hidden;whiteSpace=wrap;html=1;strokeColor=default;fontFamily=Helvetica;fontSize=12;fontColor=default;startSize=30;movable=1;resizable=1;rotatable=1;deletable=1;locked=0;" vertex="1" parent="QTWqeJgQUA_3JUvdfC61-9">
          <mxGeometry width="30" height="30" as="geometry">
            <mxRectangle width="30" height="30" as="alternateBounds" />
          </mxGeometry>
        </mxCell>
        <mxCell id="QTWqeJgQUA_3JUvdfC61-11" value="nome (VARCHAR(80))" style="shape=partialRectangle;connectable=1;fillColor=none;top=0;left=0;bottom=0;right=0;align=left;spacingLeft=6;overflow=hidden;whiteSpace=wrap;html=1;strokeColor=default;fontFamily=Helvetica;fontSize=12;fontColor=default;startSize=30;movable=1;resizable=1;rotatable=1;deletable=1;editable=1;locked=0;" vertex="1" parent="QTWqeJgQUA_3JUvdfC61-9">
          <mxGeometry x="30" width="150" height="30" as="geometry">
            <mxRectangle width="150" height="30" as="alternateBounds" />
          </mxGeometry>
        </mxCell>
        <mxCell id="QTWqeJgQUA_3JUvdfC61-12" value="" style="shape=tableRow;horizontal=0;startSize=0;swimlaneHead=0;swimlaneBody=0;fillColor=none;collapsible=0;dropTarget=0;points=[[0,0.5],[1,0.5]];portConstraint=eastwest;top=0;left=0;right=0;bottom=0;strokeColor=default;fontFamily=Helvetica;fontSize=12;fontColor=default;html=1;movable=1;resizable=1;rotatable=1;deletable=1;editable=1;locked=0;connectable=1;" vertex="1" parent="QTWqeJgQUA_3JUvdfC61-2">
          <mxGeometry y="150" width="180" height="30" as="geometry" />
        </mxCell>
        <mxCell id="QTWqeJgQUA_3JUvdfC61-13" value="" style="shape=partialRectangle;connectable=1;fillColor=none;top=0;left=0;bottom=0;right=0;editable=1;overflow=hidden;whiteSpace=wrap;html=1;strokeColor=default;fontFamily=Helvetica;fontSize=12;fontColor=default;startSize=30;movable=1;resizable=1;rotatable=1;deletable=1;locked=0;" vertex="1" parent="QTWqeJgQUA_3JUvdfC61-12">
          <mxGeometry width="30" height="30" as="geometry">
            <mxRectangle width="30" height="30" as="alternateBounds" />
          </mxGeometry>
        </mxCell>
        <mxCell id="QTWqeJgQUA_3JUvdfC61-14" value="cpf (INT)" style="shape=partialRectangle;connectable=1;fillColor=none;top=0;left=0;bottom=0;right=0;align=left;spacingLeft=6;overflow=hidden;whiteSpace=wrap;html=1;strokeColor=default;fontFamily=Helvetica;fontSize=12;fontColor=default;startSize=30;movable=1;resizable=1;rotatable=1;deletable=1;editable=1;locked=0;" vertex="1" parent="QTWqeJgQUA_3JUvdfC61-12">
          <mxGeometry x="30" width="150" height="30" as="geometry">
            <mxRectangle width="150" height="30" as="alternateBounds" />
          </mxGeometry>
        </mxCell>
        <mxCell id="QTWqeJgQUA_3JUvdfC61-15" style="shape=tableRow;horizontal=0;startSize=0;swimlaneHead=0;swimlaneBody=0;fillColor=none;collapsible=0;dropTarget=0;points=[[0,0.5],[1,0.5]];portConstraint=eastwest;top=0;left=0;right=0;bottom=0;strokeColor=default;fontFamily=Helvetica;fontSize=12;fontColor=default;html=1;movable=1;resizable=1;rotatable=1;deletable=1;editable=1;locked=0;connectable=1;" vertex="1" parent="QTWqeJgQUA_3JUvdfC61-2">
          <mxGeometry y="180" width="180" height="30" as="geometry" />
        </mxCell>
        <mxCell id="QTWqeJgQUA_3JUvdfC61-16" style="shape=partialRectangle;connectable=1;fillColor=none;top=0;left=0;bottom=0;right=0;editable=1;overflow=hidden;whiteSpace=wrap;html=1;strokeColor=default;fontFamily=Helvetica;fontSize=12;fontColor=default;startSize=30;movable=1;resizable=1;rotatable=1;deletable=1;locked=0;" vertex="1" parent="QTWqeJgQUA_3JUvdfC61-15">
          <mxGeometry width="30" height="30" as="geometry">
            <mxRectangle width="30" height="30" as="alternateBounds" />
          </mxGeometry>
        </mxCell>
        <mxCell id="QTWqeJgQUA_3JUvdfC61-17" value="rg (INT)" style="shape=partialRectangle;connectable=1;fillColor=none;top=0;left=0;bottom=0;right=0;align=left;spacingLeft=6;overflow=hidden;whiteSpace=wrap;html=1;strokeColor=default;fontFamily=Helvetica;fontSize=12;fontColor=default;startSize=30;movable=1;resizable=1;rotatable=1;deletable=1;editable=1;locked=0;" vertex="1" parent="QTWqeJgQUA_3JUvdfC61-15">
          <mxGeometry x="30" width="150" height="30" as="geometry">
            <mxRectangle width="150" height="30" as="alternateBounds" />
          </mxGeometry>
        </mxCell>
        <mxCell id="QTWqeJgQUA_3JUvdfC61-19" style="shape=tableRow;horizontal=0;startSize=0;swimlaneHead=0;swimlaneBody=0;fillColor=none;collapsible=0;dropTarget=0;points=[[0,0.5],[1,0.5]];portConstraint=eastwest;top=0;left=0;right=0;bottom=0;strokeColor=default;fontFamily=Helvetica;fontSize=12;fontColor=default;html=1;movable=1;resizable=1;rotatable=1;deletable=1;editable=1;locked=0;connectable=1;" vertex="1" parent="QTWqeJgQUA_3JUvdfC61-2">
          <mxGeometry y="210" width="180" height="30" as="geometry" />
        </mxCell>
        <mxCell id="QTWqeJgQUA_3JUvdfC61-20" style="shape=partialRectangle;connectable=1;fillColor=none;top=0;left=0;bottom=0;right=0;editable=1;overflow=hidden;whiteSpace=wrap;html=1;strokeColor=default;fontFamily=Helvetica;fontSize=12;fontColor=default;startSize=30;movable=1;resizable=1;rotatable=1;deletable=1;locked=0;" vertex="1" parent="QTWqeJgQUA_3JUvdfC61-19">
          <mxGeometry width="30" height="30" as="geometry">
            <mxRectangle width="30" height="30" as="alternateBounds" />
          </mxGeometry>
        </mxCell>
        <mxCell id="QTWqeJgQUA_3JUvdfC61-21" value="data_nacimento(DATE)" style="shape=partialRectangle;connectable=1;fillColor=none;top=0;left=0;bottom=0;right=0;align=left;spacingLeft=6;overflow=hidden;whiteSpace=wrap;html=1;strokeColor=default;fontFamily=Helvetica;fontSize=12;fontColor=default;startSize=30;movable=1;resizable=1;rotatable=1;deletable=1;editable=1;locked=0;" vertex="1" parent="QTWqeJgQUA_3JUvdfC61-19">
          <mxGeometry x="30" width="150" height="30" as="geometry">
            <mxRectangle width="150" height="30" as="alternateBounds" />
          </mxGeometry>
        </mxCell>
        <mxCell id="QTWqeJgQUA_3JUvdfC61-128" style="shape=tableRow;horizontal=0;startSize=0;swimlaneHead=0;swimlaneBody=0;fillColor=none;collapsible=0;dropTarget=0;points=[[0,0.5],[1,0.5]];portConstraint=eastwest;top=0;left=0;right=0;bottom=0;strokeColor=default;fontFamily=Helvetica;fontSize=12;fontColor=default;html=1;movable=1;resizable=1;rotatable=1;deletable=1;editable=1;locked=0;connectable=1;" vertex="1" parent="QTWqeJgQUA_3JUvdfC61-2">
          <mxGeometry y="240" width="180" height="30" as="geometry" />
        </mxCell>
        <mxCell id="QTWqeJgQUA_3JUvdfC61-129" style="shape=partialRectangle;connectable=1;fillColor=none;top=0;left=0;bottom=0;right=0;editable=1;overflow=hidden;whiteSpace=wrap;html=1;strokeColor=default;fontFamily=Helvetica;fontSize=12;fontColor=default;startSize=30;movable=1;resizable=1;rotatable=1;deletable=1;locked=0;" vertex="1" parent="QTWqeJgQUA_3JUvdfC61-128">
          <mxGeometry width="30" height="30" as="geometry">
            <mxRectangle width="30" height="30" as="alternateBounds" />
          </mxGeometry>
        </mxCell>
        <mxCell id="QTWqeJgQUA_3JUvdfC61-130" value="email VARCHAR(50)" style="shape=partialRectangle;connectable=1;fillColor=none;top=0;left=0;bottom=0;right=0;align=left;spacingLeft=6;overflow=hidden;whiteSpace=wrap;html=1;strokeColor=default;fontFamily=Helvetica;fontSize=12;fontColor=default;startSize=30;movable=1;resizable=1;rotatable=1;deletable=1;editable=1;locked=0;" vertex="1" parent="QTWqeJgQUA_3JUvdfC61-128">
          <mxGeometry x="30" width="150" height="30" as="geometry">
            <mxRectangle width="150" height="30" as="alternateBounds" />
          </mxGeometry>
        </mxCell>
        <mxCell id="QTWqeJgQUA_3JUvdfC61-22" value="Com relaÃ§Ã£o aos jogos, armazenaremos o nome do jogo, a data de lanÃ§amento, a quais plataformas esse jogo pertence, bem como os gÃªneros desse jogo. NÃ³s consideramos que o jogo pertencerÃ¡ a apenas um gÃªnero, independente de como a concorrÃªncia classifica.&amp;#xa;&amp;#xa;A princÃ­pio, as plataformas que precisaremos lidar serÃ£o: PS1, PS2, PS3, PS4, PS5, Xbox Series S, Xbox Series X e PC. Mas provavelmente teremos mais plataformas futuramente.&amp;#xa;&amp;#xa;TambÃ©m adicionaremos fotos e vÃ­deos do jogo para deixar os nossos usuÃ¡rios empolgados para jogar." style="text;whiteSpace=wrap;html=1;" vertex="1" parent="1">
          <mxGeometry x="40" width="560" height="110" as="geometry" />
        </mxCell>
        <mxCell id="QTWqeJgQUA_3JUvdfC61-23" value="Jogo" style="shape=table;startSize=30;container=1;collapsible=1;childLayout=tableLayout;fixedRows=1;rowLines=0;fontStyle=1;align=center;resizeLast=1;html=1;strokeColor=default;fontFamily=Helvetica;fontSize=12;fontColor=default;fillColor=default;" vertex="1" parent="1">
          <mxGeometry x="290" y="460" width="180" height="150" as="geometry" />
        </mxCell>
        <mxCell id="QTWqeJgQUA_3JUvdfC61-101" style="shape=tableRow;horizontal=0;startSize=0;swimlaneHead=0;swimlaneBody=0;fillColor=none;collapsible=0;dropTarget=0;points=[[0,0.5],[1,0.5]];portConstraint=eastwest;top=0;left=0;right=0;bottom=1;strokeColor=default;fontFamily=Helvetica;fontSize=12;fontColor=default;html=1;" vertex="1" parent="QTWqeJgQUA_3JUvdfC61-23">
          <mxGeometry y="30" width="180" height="30" as="geometry" />
        </mxCell>
        <mxCell id="QTWqeJgQUA_3JUvdfC61-102" value="FK" style="shape=partialRectangle;connectable=0;fillColor=none;top=0;left=0;bottom=0;right=0;fontStyle=1;overflow=hidden;whiteSpace=wrap;html=1;strokeColor=default;fontFamily=Helvetica;fontSize=12;fontColor=default;startSize=30;" vertex="1" parent="QTWqeJgQUA_3JUvdfC61-101">
          <mxGeometry width="30" height="30" as="geometry">
            <mxRectangle width="30" height="30" as="alternateBounds" />
          </mxGeometry>
        </mxCell>
        <mxCell id="QTWqeJgQUA_3JUvdfC61-103" value="genero_id" style="shape=partialRectangle;connectable=0;fillColor=none;top=0;left=0;bottom=0;right=0;align=left;spacingLeft=6;fontStyle=5;overflow=hidden;whiteSpace=wrap;html=1;strokeColor=default;fontFamily=Helvetica;fontSize=12;fontColor=default;startSize=30;" vertex="1" parent="QTWqeJgQUA_3JUvdfC61-101">
          <mxGeometry x="30" width="150" height="30" as="geometry">
            <mxRectangle width="150" height="30" as="alternateBounds" />
          </mxGeometry>
        </mxCell>
        <mxCell id="QTWqeJgQUA_3JUvdfC61-24" value="" style="shape=tableRow;horizontal=0;startSize=0;swimlaneHead=0;swimlaneBody=0;fillColor=none;collapsible=0;dropTarget=0;points=[[0,0.5],[1,0.5]];portConstraint=eastwest;top=0;left=0;right=0;bottom=1;strokeColor=default;fontFamily=Helvetica;fontSize=12;fontColor=default;html=1;" vertex="1" parent="QTWqeJgQUA_3JUvdfC61-23">
          <mxGeometry y="60" width="180" height="30" as="geometry" />
        </mxCell>
        <mxCell id="QTWqeJgQUA_3JUvdfC61-25" value="PK" style="shape=partialRectangle;connectable=0;fillColor=none;top=0;left=0;bottom=0;right=0;fontStyle=1;overflow=hidden;whiteSpace=wrap;html=1;strokeColor=default;fontFamily=Helvetica;fontSize=12;fontColor=default;startSize=30;" vertex="1" parent="QTWqeJgQUA_3JUvdfC61-24">
          <mxGeometry width="30" height="30" as="geometry">
            <mxRectangle width="30" height="30" as="alternateBounds" />
          </mxGeometry>
        </mxCell>
        <mxCell id="QTWqeJgQUA_3JUvdfC61-26" value="id (SERIAL)" style="shape=partialRectangle;connectable=0;fillColor=none;top=0;left=0;bottom=0;right=0;align=left;spacingLeft=6;fontStyle=5;overflow=hidden;whiteSpace=wrap;html=1;strokeColor=default;fontFamily=Helvetica;fontSize=12;fontColor=default;startSize=30;" vertex="1" parent="QTWqeJgQUA_3JUvdfC61-24">
          <mxGeometry x="30" width="150" height="30" as="geometry">
            <mxRectangle width="150" height="30" as="alternateBounds" />
          </mxGeometry>
        </mxCell>
        <mxCell id="QTWqeJgQUA_3JUvdfC61-27" value="" style="shape=tableRow;horizontal=0;startSize=0;swimlaneHead=0;swimlaneBody=0;fillColor=none;collapsible=0;dropTarget=0;points=[[0,0.5],[1,0.5]];portConstraint=eastwest;top=0;left=0;right=0;bottom=0;strokeColor=default;fontFamily=Helvetica;fontSize=12;fontColor=default;html=1;" vertex="1" parent="QTWqeJgQUA_3JUvdfC61-23">
          <mxGeometry y="90" width="180" height="30" as="geometry" />
        </mxCell>
        <mxCell id="QTWqeJgQUA_3JUvdfC61-28" value="" style="shape=partialRectangle;connectable=0;fillColor=none;top=0;left=0;bottom=0;right=0;editable=1;overflow=hidden;whiteSpace=wrap;html=1;strokeColor=default;fontFamily=Helvetica;fontSize=12;fontColor=default;startSize=30;" vertex="1" parent="QTWqeJgQUA_3JUvdfC61-27">
          <mxGeometry width="30" height="30" as="geometry">
            <mxRectangle width="30" height="30" as="alternateBounds" />
          </mxGeometry>
        </mxCell>
        <mxCell id="QTWqeJgQUA_3JUvdfC61-29" value="nome VARCHAR(40)" style="shape=partialRectangle;connectable=0;fillColor=none;top=0;left=0;bottom=0;right=0;align=left;spacingLeft=6;overflow=hidden;whiteSpace=wrap;html=1;strokeColor=default;fontFamily=Helvetica;fontSize=12;fontColor=default;startSize=30;" vertex="1" parent="QTWqeJgQUA_3JUvdfC61-27">
          <mxGeometry x="30" width="150" height="30" as="geometry">
            <mxRectangle width="150" height="30" as="alternateBounds" />
          </mxGeometry>
        </mxCell>
        <mxCell id="QTWqeJgQUA_3JUvdfC61-30" value="" style="shape=tableRow;horizontal=0;startSize=0;swimlaneHead=0;swimlaneBody=0;fillColor=none;collapsible=0;dropTarget=0;points=[[0,0.5],[1,0.5]];portConstraint=eastwest;top=0;left=0;right=0;bottom=0;strokeColor=default;fontFamily=Helvetica;fontSize=12;fontColor=default;html=1;" vertex="1" parent="QTWqeJgQUA_3JUvdfC61-23">
          <mxGeometry y="120" width="180" height="30" as="geometry" />
        </mxCell>
        <mxCell id="QTWqeJgQUA_3JUvdfC61-31" value="" style="shape=partialRectangle;connectable=0;fillColor=none;top=0;left=0;bottom=0;right=0;editable=1;overflow=hidden;whiteSpace=wrap;html=1;strokeColor=default;fontFamily=Helvetica;fontSize=12;fontColor=default;startSize=30;" vertex="1" parent="QTWqeJgQUA_3JUvdfC61-30">
          <mxGeometry width="30" height="30" as="geometry">
            <mxRectangle width="30" height="30" as="alternateBounds" />
          </mxGeometry>
        </mxCell>
        <mxCell id="QTWqeJgQUA_3JUvdfC61-32" value="data_lancamento (DATE)" style="shape=partialRectangle;connectable=0;fillColor=none;top=0;left=0;bottom=0;right=0;align=left;spacingLeft=6;overflow=hidden;whiteSpace=wrap;html=1;strokeColor=default;fontFamily=Helvetica;fontSize=12;fontColor=default;startSize=30;" vertex="1" parent="QTWqeJgQUA_3JUvdfC61-30">
          <mxGeometry x="30" width="150" height="30" as="geometry">
            <mxRectangle width="150" height="30" as="alternateBounds" />
          </mxGeometry>
        </mxCell>
        <mxCell id="QTWqeJgQUA_3JUvdfC61-40" value="Plataforma" style="shape=table;startSize=30;container=1;collapsible=1;childLayout=tableLayout;fixedRows=1;rowLines=0;fontStyle=1;align=center;resizeLast=1;html=1;strokeColor=default;fontFamily=Helvetica;fontSize=12;fontColor=default;fillColor=default;" vertex="1" parent="1">
          <mxGeometry x="645" y="170" width="180" height="120" as="geometry" />
        </mxCell>
        <mxCell id="QTWqeJgQUA_3JUvdfC61-41" value="" style="shape=tableRow;horizontal=0;startSize=0;swimlaneHead=0;swimlaneBody=0;fillColor=none;collapsible=0;dropTarget=0;points=[[0,0.5],[1,0.5]];portConstraint=eastwest;top=0;left=0;right=0;bottom=1;strokeColor=default;fontFamily=Helvetica;fontSize=12;fontColor=default;html=1;" vertex="1" parent="QTWqeJgQUA_3JUvdfC61-40">
          <mxGeometry y="30" width="180" height="30" as="geometry" />
        </mxCell>
        <mxCell id="QTWqeJgQUA_3JUvdfC61-42" value="PK" style="shape=partialRectangle;connectable=0;fillColor=none;top=0;left=0;bottom=0;right=0;fontStyle=1;overflow=hidden;whiteSpace=wrap;html=1;strokeColor=default;fontFamily=Helvetica;fontSize=12;fontColor=default;startSize=30;" vertex="1" parent="QTWqeJgQUA_3JUvdfC61-41">
          <mxGeometry width="30" height="30" as="geometry">
            <mxRectangle width="30" height="30" as="alternateBounds" />
          </mxGeometry>
        </mxCell>
        <mxCell id="QTWqeJgQUA_3JUvdfC61-43" value="id (SERIAL)" style="shape=partialRectangle;connectable=0;fillColor=none;top=0;left=0;bottom=0;right=0;align=left;spacingLeft=6;fontStyle=5;overflow=hidden;whiteSpace=wrap;html=1;strokeColor=default;fontFamily=Helvetica;fontSize=12;fontColor=default;startSize=30;" vertex="1" parent="QTWqeJgQUA_3JUvdfC61-41">
          <mxGeometry x="30" width="150" height="30" as="geometry">
            <mxRectangle width="150" height="30" as="alternateBounds" />
          </mxGeometry>
        </mxCell>
        <mxCell id="QTWqeJgQUA_3JUvdfC61-44" value="" style="shape=tableRow;horizontal=0;startSize=0;swimlaneHead=0;swimlaneBody=0;fillColor=none;collapsible=0;dropTarget=0;points=[[0,0.5],[1,0.5]];portConstraint=eastwest;top=0;left=0;right=0;bottom=0;strokeColor=default;fontFamily=Helvetica;fontSize=12;fontColor=default;html=1;" vertex="1" parent="QTWqeJgQUA_3JUvdfC61-40">
          <mxGeometry y="60" width="180" height="30" as="geometry" />
        </mxCell>
        <mxCell id="QTWqeJgQUA_3JUvdfC61-45" value="" style="shape=partialRectangle;connectable=0;fillColor=none;top=0;left=0;bottom=0;right=0;editable=1;overflow=hidden;whiteSpace=wrap;html=1;strokeColor=default;fontFamily=Helvetica;fontSize=12;fontColor=default;startSize=30;" vertex="1" parent="QTWqeJgQUA_3JUvdfC61-44">
          <mxGeometry width="30" height="30" as="geometry">
            <mxRectangle width="30" height="30" as="alternateBounds" />
          </mxGeometry>
        </mxCell>
        <mxCell id="QTWqeJgQUA_3JUvdfC61-46" value="nome VARCHAR(40)" style="shape=partialRectangle;connectable=0;fillColor=none;top=0;left=0;bottom=0;right=0;align=left;spacingLeft=6;overflow=hidden;whiteSpace=wrap;html=1;strokeColor=default;fontFamily=Helvetica;fontSize=12;fontColor=default;startSize=30;" vertex="1" parent="QTWqeJgQUA_3JUvdfC61-44">
          <mxGeometry x="30" width="150" height="30" as="geometry">
            <mxRectangle width="150" height="30" as="alternateBounds" />
          </mxGeometry>
        </mxCell>
        <mxCell id="QTWqeJgQUA_3JUvdfC61-47" value="" style="shape=tableRow;horizontal=0;startSize=0;swimlaneHead=0;swimlaneBody=0;fillColor=none;collapsible=0;dropTarget=0;points=[[0,0.5],[1,0.5]];portConstraint=eastwest;top=0;left=0;right=0;bottom=0;strokeColor=default;fontFamily=Helvetica;fontSize=12;fontColor=default;html=1;" vertex="1" parent="QTWqeJgQUA_3JUvdfC61-40">
          <mxGeometry y="90" width="180" height="30" as="geometry" />
        </mxCell>
        <mxCell id="QTWqeJgQUA_3JUvdfC61-48" value="" style="shape=partialRectangle;connectable=0;fillColor=none;top=0;left=0;bottom=0;right=0;editable=1;overflow=hidden;whiteSpace=wrap;html=1;strokeColor=default;fontFamily=Helvetica;fontSize=12;fontColor=default;startSize=30;" vertex="1" parent="QTWqeJgQUA_3JUvdfC61-47">
          <mxGeometry width="30" height="30" as="geometry">
            <mxRectangle width="30" height="30" as="alternateBounds" />
          </mxGeometry>
        </mxCell>
        <mxCell id="QTWqeJgQUA_3JUvdfC61-49" value="descricao VARCHAR(120)" style="shape=partialRectangle;connectable=0;fillColor=none;top=0;left=0;bottom=0;right=0;align=left;spacingLeft=6;overflow=hidden;whiteSpace=wrap;html=1;strokeColor=default;fontFamily=Helvetica;fontSize=12;fontColor=default;startSize=30;" vertex="1" parent="QTWqeJgQUA_3JUvdfC61-47">
          <mxGeometry x="30" width="150" height="30" as="geometry">
            <mxRectangle width="150" height="30" as="alternateBounds" />
          </mxGeometry>
        </mxCell>
        <mxCell id="QTWqeJgQUA_3JUvdfC61-57" value="Genero" style="shape=table;startSize=30;container=1;collapsible=1;childLayout=tableLayout;fixedRows=1;rowLines=0;fontStyle=1;align=center;resizeLast=1;html=1;strokeColor=default;fontFamily=Helvetica;fontSize=12;fontColor=default;fillColor=default;" vertex="1" parent="1">
          <mxGeometry x="530" y="456" width="200" height="120" as="geometry" />
        </mxCell>
        <mxCell id="QTWqeJgQUA_3JUvdfC61-58" value="" style="shape=tableRow;horizontal=0;startSize=0;swimlaneHead=0;swimlaneBody=0;fillColor=none;collapsible=0;dropTarget=0;points=[[0,0.5],[1,0.5]];portConstraint=eastwest;top=0;left=0;right=0;bottom=1;strokeColor=default;fontFamily=Helvetica;fontSize=12;fontColor=default;html=1;" vertex="1" parent="QTWqeJgQUA_3JUvdfC61-57">
          <mxGeometry y="30" width="200" height="30" as="geometry" />
        </mxCell>
        <mxCell id="QTWqeJgQUA_3JUvdfC61-59" value="PK" style="shape=partialRectangle;connectable=0;fillColor=none;top=0;left=0;bottom=0;right=0;fontStyle=1;overflow=hidden;whiteSpace=wrap;html=1;strokeColor=default;fontFamily=Helvetica;fontSize=12;fontColor=default;startSize=30;" vertex="1" parent="QTWqeJgQUA_3JUvdfC61-58">
          <mxGeometry width="30" height="30" as="geometry">
            <mxRectangle width="30" height="30" as="alternateBounds" />
          </mxGeometry>
        </mxCell>
        <mxCell id="QTWqeJgQUA_3JUvdfC61-60" value="id (SERIAL)" style="shape=partialRectangle;connectable=0;fillColor=none;top=0;left=0;bottom=0;right=0;align=left;spacingLeft=6;fontStyle=5;overflow=hidden;whiteSpace=wrap;html=1;strokeColor=default;fontFamily=Helvetica;fontSize=12;fontColor=default;startSize=30;" vertex="1" parent="QTWqeJgQUA_3JUvdfC61-58">
          <mxGeometry x="30" width="170" height="30" as="geometry">
            <mxRectangle width="170" height="30" as="alternateBounds" />
          </mxGeometry>
        </mxCell>
        <mxCell id="QTWqeJgQUA_3JUvdfC61-61" value="" style="shape=tableRow;horizontal=0;startSize=0;swimlaneHead=0;swimlaneBody=0;fillColor=none;collapsible=0;dropTarget=0;points=[[0,0.5],[1,0.5]];portConstraint=eastwest;top=0;left=0;right=0;bottom=0;strokeColor=default;fontFamily=Helvetica;fontSize=12;fontColor=default;html=1;" vertex="1" parent="QTWqeJgQUA_3JUvdfC61-57">
          <mxGeometry y="60" width="200" height="30" as="geometry" />
        </mxCell>
        <mxCell id="QTWqeJgQUA_3JUvdfC61-62" value="" style="shape=partialRectangle;connectable=0;fillColor=none;top=0;left=0;bottom=0;right=0;editable=1;overflow=hidden;whiteSpace=wrap;html=1;strokeColor=default;fontFamily=Helvetica;fontSize=12;fontColor=default;startSize=30;" vertex="1" parent="QTWqeJgQUA_3JUvdfC61-61">
          <mxGeometry width="30" height="30" as="geometry">
            <mxRectangle width="30" height="30" as="alternateBounds" />
          </mxGeometry>
        </mxCell>
        <mxCell id="QTWqeJgQUA_3JUvdfC61-63" value="nome VARCHAR(20)" style="shape=partialRectangle;connectable=0;fillColor=none;top=0;left=0;bottom=0;right=0;align=left;spacingLeft=6;overflow=hidden;whiteSpace=wrap;html=1;strokeColor=default;fontFamily=Helvetica;fontSize=12;fontColor=default;startSize=30;" vertex="1" parent="QTWqeJgQUA_3JUvdfC61-61">
          <mxGeometry x="30" width="170" height="30" as="geometry">
            <mxRectangle width="170" height="30" as="alternateBounds" />
          </mxGeometry>
        </mxCell>
        <mxCell id="QTWqeJgQUA_3JUvdfC61-64" value="" style="shape=tableRow;horizontal=0;startSize=0;swimlaneHead=0;swimlaneBody=0;fillColor=none;collapsible=0;dropTarget=0;points=[[0,0.5],[1,0.5]];portConstraint=eastwest;top=0;left=0;right=0;bottom=0;strokeColor=default;fontFamily=Helvetica;fontSize=12;fontColor=default;html=1;" vertex="1" parent="QTWqeJgQUA_3JUvdfC61-57">
          <mxGeometry y="90" width="200" height="30" as="geometry" />
        </mxCell>
        <mxCell id="QTWqeJgQUA_3JUvdfC61-65" value="" style="shape=partialRectangle;connectable=0;fillColor=none;top=0;left=0;bottom=0;right=0;editable=1;overflow=hidden;whiteSpace=wrap;html=1;strokeColor=default;fontFamily=Helvetica;fontSize=12;fontColor=default;startSize=30;" vertex="1" parent="QTWqeJgQUA_3JUvdfC61-64">
          <mxGeometry width="30" height="30" as="geometry">
            <mxRectangle width="30" height="30" as="alternateBounds" />
          </mxGeometry>
        </mxCell>
        <mxCell id="QTWqeJgQUA_3JUvdfC61-66" value="descricao (VARCHAR(120)" style="shape=partialRectangle;connectable=0;fillColor=none;top=0;left=0;bottom=0;right=0;align=left;spacingLeft=6;overflow=hidden;whiteSpace=wrap;html=1;strokeColor=default;fontFamily=Helvetica;fontSize=12;fontColor=default;startSize=30;" vertex="1" parent="QTWqeJgQUA_3JUvdfC61-64">
          <mxGeometry x="30" width="170" height="30" as="geometry">
            <mxRectangle width="170" height="30" as="alternateBounds" />
          </mxGeometry>
        </mxCell>
        <mxCell id="QTWqeJgQUA_3JUvdfC61-74" value="Foto" style="shape=table;startSize=30;container=1;collapsible=1;childLayout=tableLayout;fixedRows=1;rowLines=0;fontStyle=1;align=center;resizeLast=1;html=1;strokeColor=default;fontFamily=Helvetica;fontSize=12;fontColor=default;fillColor=default;" vertex="1" parent="1">
          <mxGeometry x="226" y="170" width="180" height="120" as="geometry" />
        </mxCell>
        <mxCell id="QTWqeJgQUA_3JUvdfC61-131" style="shape=tableRow;horizontal=0;startSize=0;swimlaneHead=0;swimlaneBody=0;fillColor=none;collapsible=0;dropTarget=0;points=[[0,0.5],[1,0.5]];portConstraint=eastwest;top=0;left=0;right=0;bottom=1;strokeColor=default;fontFamily=Helvetica;fontSize=12;fontColor=default;html=1;" vertex="1" parent="QTWqeJgQUA_3JUvdfC61-74">
          <mxGeometry y="30" width="180" height="30" as="geometry" />
        </mxCell>
        <mxCell id="QTWqeJgQUA_3JUvdfC61-132" value="FK" style="shape=partialRectangle;connectable=0;fillColor=none;top=0;left=0;bottom=0;right=0;fontStyle=1;overflow=hidden;whiteSpace=wrap;html=1;strokeColor=default;fontFamily=Helvetica;fontSize=12;fontColor=default;startSize=30;" vertex="1" parent="QTWqeJgQUA_3JUvdfC61-131">
          <mxGeometry width="30" height="30" as="geometry">
            <mxRectangle width="30" height="30" as="alternateBounds" />
          </mxGeometry>
        </mxCell>
        <mxCell id="QTWqeJgQUA_3JUvdfC61-133" value="jogo_id" style="shape=partialRectangle;connectable=0;fillColor=none;top=0;left=0;bottom=0;right=0;align=left;spacingLeft=6;fontStyle=5;overflow=hidden;whiteSpace=wrap;html=1;strokeColor=default;fontFamily=Helvetica;fontSize=12;fontColor=default;startSize=30;" vertex="1" parent="QTWqeJgQUA_3JUvdfC61-131">
          <mxGeometry x="30" width="150" height="30" as="geometry">
            <mxRectangle width="150" height="30" as="alternateBounds" />
          </mxGeometry>
        </mxCell>
        <mxCell id="QTWqeJgQUA_3JUvdfC61-75" value="" style="shape=tableRow;horizontal=0;startSize=0;swimlaneHead=0;swimlaneBody=0;fillColor=none;collapsible=0;dropTarget=0;points=[[0,0.5],[1,0.5]];portConstraint=eastwest;top=0;left=0;right=0;bottom=1;strokeColor=default;fontFamily=Helvetica;fontSize=12;fontColor=default;html=1;" vertex="1" parent="QTWqeJgQUA_3JUvdfC61-74">
          <mxGeometry y="60" width="180" height="30" as="geometry" />
        </mxCell>
        <mxCell id="QTWqeJgQUA_3JUvdfC61-76" value="PK" style="shape=partialRectangle;connectable=0;fillColor=none;top=0;left=0;bottom=0;right=0;fontStyle=1;overflow=hidden;whiteSpace=wrap;html=1;strokeColor=default;fontFamily=Helvetica;fontSize=12;fontColor=default;startSize=30;" vertex="1" parent="QTWqeJgQUA_3JUvdfC61-75">
          <mxGeometry width="30" height="30" as="geometry">
            <mxRectangle width="30" height="30" as="alternateBounds" />
          </mxGeometry>
        </mxCell>
        <mxCell id="QTWqeJgQUA_3JUvdfC61-77" value="id (SERIAL)" style="shape=partialRectangle;connectable=0;fillColor=none;top=0;left=0;bottom=0;right=0;align=left;spacingLeft=6;fontStyle=5;overflow=hidden;whiteSpace=wrap;html=1;strokeColor=default;fontFamily=Helvetica;fontSize=12;fontColor=default;startSize=30;" vertex="1" parent="QTWqeJgQUA_3JUvdfC61-75">
          <mxGeometry x="30" width="150" height="30" as="geometry">
            <mxRectangle width="150" height="30" as="alternateBounds" />
          </mxGeometry>
        </mxCell>
        <mxCell id="QTWqeJgQUA_3JUvdfC61-78" value="" style="shape=tableRow;horizontal=0;startSize=0;swimlaneHead=0;swimlaneBody=0;fillColor=none;collapsible=0;dropTarget=0;points=[[0,0.5],[1,0.5]];portConstraint=eastwest;top=0;left=0;right=0;bottom=0;strokeColor=default;fontFamily=Helvetica;fontSize=12;fontColor=default;html=1;" vertex="1" parent="QTWqeJgQUA_3JUvdfC61-74">
          <mxGeometry y="90" width="180" height="30" as="geometry" />
        </mxCell>
        <mxCell id="QTWqeJgQUA_3JUvdfC61-79" value="" style="shape=partialRectangle;connectable=0;fillColor=none;top=0;left=0;bottom=0;right=0;editable=1;overflow=hidden;whiteSpace=wrap;html=1;strokeColor=default;fontFamily=Helvetica;fontSize=12;fontColor=default;startSize=30;" vertex="1" parent="QTWqeJgQUA_3JUvdfC61-78">
          <mxGeometry width="30" height="30" as="geometry">
            <mxRectangle width="30" height="30" as="alternateBounds" />
          </mxGeometry>
        </mxCell>
        <mxCell id="QTWqeJgQUA_3JUvdfC61-80" value="url (VARCHAR(200))" style="shape=partialRectangle;connectable=0;fillColor=none;top=0;left=0;bottom=0;right=0;align=left;spacingLeft=6;overflow=hidden;whiteSpace=wrap;html=1;strokeColor=default;fontFamily=Helvetica;fontSize=12;fontColor=default;startSize=30;" vertex="1" parent="QTWqeJgQUA_3JUvdfC61-78">
          <mxGeometry x="30" width="150" height="30" as="geometry">
            <mxRectangle width="150" height="30" as="alternateBounds" />
          </mxGeometry>
        </mxCell>
        <mxCell id="QTWqeJgQUA_3JUvdfC61-91" value="Video" style="shape=table;startSize=30;container=1;collapsible=1;childLayout=tableLayout;fixedRows=1;rowLines=0;fontStyle=1;align=center;resizeLast=1;html=1;strokeColor=default;fontFamily=Helvetica;fontSize=12;fontColor=default;fillColor=default;" vertex="1" parent="1">
          <mxGeometry x="430" y="170" width="180" height="120" as="geometry" />
        </mxCell>
        <mxCell id="QTWqeJgQUA_3JUvdfC61-134" style="shape=tableRow;horizontal=0;startSize=0;swimlaneHead=0;swimlaneBody=0;fillColor=none;collapsible=0;dropTarget=0;points=[[0,0.5],[1,0.5]];portConstraint=eastwest;top=0;left=0;right=0;bottom=1;strokeColor=default;fontFamily=Helvetica;fontSize=12;fontColor=default;html=1;" vertex="1" parent="QTWqeJgQUA_3JUvdfC61-91">
          <mxGeometry y="30" width="180" height="30" as="geometry" />
        </mxCell>
        <mxCell id="QTWqeJgQUA_3JUvdfC61-135" value="FK" style="shape=partialRectangle;connectable=0;fillColor=none;top=0;left=0;bottom=0;right=0;fontStyle=1;overflow=hidden;whiteSpace=wrap;html=1;strokeColor=default;fontFamily=Helvetica;fontSize=12;fontColor=default;startSize=30;" vertex="1" parent="QTWqeJgQUA_3JUvdfC61-134">
          <mxGeometry width="30" height="30" as="geometry">
            <mxRectangle width="30" height="30" as="alternateBounds" />
          </mxGeometry>
        </mxCell>
        <mxCell id="QTWqeJgQUA_3JUvdfC61-136" value="jogo_id" style="shape=partialRectangle;connectable=0;fillColor=none;top=0;left=0;bottom=0;right=0;align=left;spacingLeft=6;fontStyle=5;overflow=hidden;whiteSpace=wrap;html=1;strokeColor=default;fontFamily=Helvetica;fontSize=12;fontColor=default;startSize=30;" vertex="1" parent="QTWqeJgQUA_3JUvdfC61-134">
          <mxGeometry x="30" width="150" height="30" as="geometry">
            <mxRectangle width="150" height="30" as="alternateBounds" />
          </mxGeometry>
        </mxCell>
        <mxCell id="QTWqeJgQUA_3JUvdfC61-92" value="" style="shape=tableRow;horizontal=0;startSize=0;swimlaneHead=0;swimlaneBody=0;fillColor=none;collapsible=0;dropTarget=0;points=[[0,0.5],[1,0.5]];portConstraint=eastwest;top=0;left=0;right=0;bottom=1;strokeColor=default;fontFamily=Helvetica;fontSize=12;fontColor=default;html=1;" vertex="1" parent="QTWqeJgQUA_3JUvdfC61-91">
          <mxGeometry y="60" width="180" height="30" as="geometry" />
        </mxCell>
        <mxCell id="QTWqeJgQUA_3JUvdfC61-93" value="PK" style="shape=partialRectangle;connectable=0;fillColor=none;top=0;left=0;bottom=0;right=0;fontStyle=1;overflow=hidden;whiteSpace=wrap;html=1;strokeColor=default;fontFamily=Helvetica;fontSize=12;fontColor=default;startSize=30;" vertex="1" parent="QTWqeJgQUA_3JUvdfC61-92">
          <mxGeometry width="30" height="30" as="geometry">
            <mxRectangle width="30" height="30" as="alternateBounds" />
          </mxGeometry>
        </mxCell>
        <mxCell id="QTWqeJgQUA_3JUvdfC61-94" value="id (SERIAL)" style="shape=partialRectangle;connectable=0;fillColor=none;top=0;left=0;bottom=0;right=0;align=left;spacingLeft=6;fontStyle=5;overflow=hidden;whiteSpace=wrap;html=1;strokeColor=default;fontFamily=Helvetica;fontSize=12;fontColor=default;startSize=30;" vertex="1" parent="QTWqeJgQUA_3JUvdfC61-92">
          <mxGeometry x="30" width="150" height="30" as="geometry">
            <mxRectangle width="150" height="30" as="alternateBounds" />
          </mxGeometry>
        </mxCell>
        <mxCell id="QTWqeJgQUA_3JUvdfC61-95" value="" style="shape=tableRow;horizontal=0;startSize=0;swimlaneHead=0;swimlaneBody=0;fillColor=none;collapsible=0;dropTarget=0;points=[[0,0.5],[1,0.5]];portConstraint=eastwest;top=0;left=0;right=0;bottom=0;strokeColor=default;fontFamily=Helvetica;fontSize=12;fontColor=default;html=1;" vertex="1" parent="QTWqeJgQUA_3JUvdfC61-91">
          <mxGeometry y="90" width="180" height="30" as="geometry" />
        </mxCell>
        <mxCell id="QTWqeJgQUA_3JUvdfC61-96" value="" style="shape=partialRectangle;connectable=0;fillColor=none;top=0;left=0;bottom=0;right=0;editable=1;overflow=hidden;whiteSpace=wrap;html=1;strokeColor=default;fontFamily=Helvetica;fontSize=12;fontColor=default;startSize=30;" vertex="1" parent="QTWqeJgQUA_3JUvdfC61-95">
          <mxGeometry width="30" height="30" as="geometry">
            <mxRectangle width="30" height="30" as="alternateBounds" />
          </mxGeometry>
        </mxCell>
        <mxCell id="QTWqeJgQUA_3JUvdfC61-97" value="url (VARCHAR (200)" style="shape=partialRectangle;connectable=0;fillColor=none;top=0;left=0;bottom=0;right=0;align=left;spacingLeft=6;overflow=hidden;whiteSpace=wrap;html=1;strokeColor=default;fontFamily=Helvetica;fontSize=12;fontColor=default;startSize=30;" vertex="1" parent="QTWqeJgQUA_3JUvdfC61-95">
          <mxGeometry x="30" width="150" height="30" as="geometry">
            <mxRectangle width="150" height="30" as="alternateBounds" />
          </mxGeometry>
        </mxCell>
        <mxCell id="QTWqeJgQUA_3JUvdfC61-104" value="aux_jogo_plataforma" style="shape=table;startSize=30;container=1;collapsible=1;childLayout=tableLayout;fixedRows=1;rowLines=0;fontStyle=1;align=center;resizeLast=1;html=1;strokeColor=#82b366;fontFamily=Helvetica;fontSize=12;fillColor=#d5e8d4;" vertex="1" parent="1">
          <mxGeometry x="620" y="340" width="180" height="90" as="geometry" />
        </mxCell>
        <mxCell id="QTWqeJgQUA_3JUvdfC61-121" style="shape=tableRow;horizontal=0;startSize=0;swimlaneHead=0;swimlaneBody=0;fillColor=none;collapsible=0;dropTarget=0;points=[[0,0.5],[1,0.5]];portConstraint=eastwest;top=0;left=0;right=0;bottom=1;strokeColor=default;fontFamily=Helvetica;fontSize=12;fontColor=default;html=1;" vertex="1" parent="QTWqeJgQUA_3JUvdfC61-104">
          <mxGeometry y="30" width="180" height="30" as="geometry" />
        </mxCell>
        <mxCell id="QTWqeJgQUA_3JUvdfC61-122" value="FK" style="shape=partialRectangle;connectable=0;fillColor=none;top=0;left=0;bottom=0;right=0;fontStyle=1;overflow=hidden;whiteSpace=wrap;html=1;strokeColor=default;fontFamily=Helvetica;fontSize=12;fontColor=default;startSize=30;" vertex="1" parent="QTWqeJgQUA_3JUvdfC61-121">
          <mxGeometry width="30" height="30" as="geometry">
            <mxRectangle width="30" height="30" as="alternateBounds" />
          </mxGeometry>
        </mxCell>
        <mxCell id="QTWqeJgQUA_3JUvdfC61-123" value="jogo_id" style="shape=partialRectangle;connectable=0;fillColor=none;top=0;left=0;bottom=0;right=0;align=left;spacingLeft=6;fontStyle=5;overflow=hidden;whiteSpace=wrap;html=1;strokeColor=default;fontFamily=Helvetica;fontSize=12;fontColor=default;startSize=30;" vertex="1" parent="QTWqeJgQUA_3JUvdfC61-121">
          <mxGeometry x="30" width="150" height="30" as="geometry">
            <mxRectangle width="150" height="30" as="alternateBounds" />
          </mxGeometry>
        </mxCell>
        <mxCell id="QTWqeJgQUA_3JUvdfC61-105" value="" style="shape=tableRow;horizontal=0;startSize=0;swimlaneHead=0;swimlaneBody=0;fillColor=none;collapsible=0;dropTarget=0;points=[[0,0.5],[1,0.5]];portConstraint=eastwest;top=0;left=0;right=0;bottom=1;strokeColor=default;fontFamily=Helvetica;fontSize=12;fontColor=default;html=1;" vertex="1" parent="QTWqeJgQUA_3JUvdfC61-104">
          <mxGeometry y="60" width="180" height="30" as="geometry" />
        </mxCell>
        <mxCell id="QTWqeJgQUA_3JUvdfC61-106" value="FK" style="shape=partialRectangle;connectable=0;fillColor=none;top=0;left=0;bottom=0;right=0;fontStyle=1;overflow=hidden;whiteSpace=wrap;html=1;strokeColor=default;fontFamily=Helvetica;fontSize=12;fontColor=default;startSize=30;" vertex="1" parent="QTWqeJgQUA_3JUvdfC61-105">
          <mxGeometry width="30" height="30" as="geometry">
            <mxRectangle width="30" height="30" as="alternateBounds" />
          </mxGeometry>
        </mxCell>
        <mxCell id="QTWqeJgQUA_3JUvdfC61-107" value="plataforma_id" style="shape=partialRectangle;connectable=0;fillColor=none;top=0;left=0;bottom=0;right=0;align=left;spacingLeft=6;fontStyle=5;overflow=hidden;whiteSpace=wrap;html=1;strokeColor=default;fontFamily=Helvetica;fontSize=12;fontColor=default;startSize=30;" vertex="1" parent="QTWqeJgQUA_3JUvdfC61-105">
          <mxGeometry x="30" width="150" height="30" as="geometry">
            <mxRectangle width="150" height="30" as="alternateBounds" />
          </mxGeometry>
        </mxCell>
        <mxCell id="QTWqeJgQUA_3JUvdfC61-137" value="aux_jogo_usuario" style="shape=table;startSize=30;container=1;collapsible=1;childLayout=tableLayout;fixedRows=1;rowLines=0;fontStyle=1;align=center;resizeLast=1;html=1;strokeColor=#82b366;fontFamily=Helvetica;fontSize=12;fillColor=#d5e8d4;" vertex="1" parent="1">
          <mxGeometry x="20" y="460" width="180" height="90" as="geometry" />
        </mxCell>
        <mxCell id="QTWqeJgQUA_3JUvdfC61-154" style="shape=tableRow;horizontal=0;startSize=0;swimlaneHead=0;swimlaneBody=0;fillColor=none;collapsible=0;dropTarget=0;points=[[0,0.5],[1,0.5]];portConstraint=eastwest;top=0;left=0;right=0;bottom=1;strokeColor=default;fontFamily=Helvetica;fontSize=12;fontColor=default;html=1;" vertex="1" parent="QTWqeJgQUA_3JUvdfC61-137">
          <mxGeometry y="30" width="180" height="30" as="geometry" />
        </mxCell>
        <mxCell id="QTWqeJgQUA_3JUvdfC61-155" value="FK" style="shape=partialRectangle;connectable=0;fillColor=none;top=0;left=0;bottom=0;right=0;fontStyle=1;overflow=hidden;whiteSpace=wrap;html=1;strokeColor=default;fontFamily=Helvetica;fontSize=12;fontColor=default;startSize=30;" vertex="1" parent="QTWqeJgQUA_3JUvdfC61-154">
          <mxGeometry width="30" height="30" as="geometry">
            <mxRectangle width="30" height="30" as="alternateBounds" />
          </mxGeometry>
        </mxCell>
        <mxCell id="QTWqeJgQUA_3JUvdfC61-156" value="jogo_id" style="shape=partialRectangle;connectable=0;fillColor=none;top=0;left=0;bottom=0;right=0;align=left;spacingLeft=6;fontStyle=5;overflow=hidden;whiteSpace=wrap;html=1;strokeColor=default;fontFamily=Helvetica;fontSize=12;fontColor=default;startSize=30;" vertex="1" parent="QTWqeJgQUA_3JUvdfC61-154">
          <mxGeometry x="30" width="150" height="30" as="geometry">
            <mxRectangle width="150" height="30" as="alternateBounds" />
          </mxGeometry>
        </mxCell>
        <mxCell id="QTWqeJgQUA_3JUvdfC61-138" value="" style="shape=tableRow;horizontal=0;startSize=0;swimlaneHead=0;swimlaneBody=0;fillColor=none;collapsible=0;dropTarget=0;points=[[0,0.5],[1,0.5]];portConstraint=eastwest;top=0;left=0;right=0;bottom=1;strokeColor=default;fontFamily=Helvetica;fontSize=12;fontColor=default;html=1;" vertex="1" parent="QTWqeJgQUA_3JUvdfC61-137">
          <mxGeometry y="60" width="180" height="30" as="geometry" />
        </mxCell>
        <mxCell id="QTWqeJgQUA_3JUvdfC61-139" value="FK" style="shape=partialRectangle;connectable=0;fillColor=none;top=0;left=0;bottom=0;right=0;fontStyle=1;overflow=hidden;whiteSpace=wrap;html=1;strokeColor=default;fontFamily=Helvetica;fontSize=12;fontColor=default;startSize=30;" vertex="1" parent="QTWqeJgQUA_3JUvdfC61-138">
          <mxGeometry width="30" height="30" as="geometry">
            <mxRectangle width="30" height="30" as="alternateBounds" />
          </mxGeometry>
        </mxCell>
        <mxCell id="QTWqeJgQUA_3JUvdfC61-140" value="usuario_login" style="shape=partialRectangle;connectable=0;fillColor=none;top=0;left=0;bottom=0;right=0;align=left;spacingLeft=6;fontStyle=5;overflow=hidden;whiteSpace=wrap;html=1;strokeColor=default;fontFamily=Helvetica;fontSize=12;fontColor=default;startSize=30;" vertex="1" parent="QTWqeJgQUA_3JUvdfC61-138">
          <mxGeometry x="30" width="150" height="30" as="geometry">
            <mxRectangle width="150" height="30" as="alternateBounds" />
          </mxGeometry>
        </mxCell>
        <mxCell id="QTWqeJgQUA_3JUvdfC61-157" value="" style="endArrow=ERmany;html=1;rounded=0;startArrow=ERmany;startFill=0;endFill=0;exitX=0.25;exitY=0;exitDx=0;exitDy=0;edgeStyle=orthogonalEdgeStyle;entryX=0;entryY=0.07;entryDx=0;entryDy=0;entryPerimeter=0;" edge="1" parent="1" source="QTWqeJgQUA_3JUvdfC61-137" target="QTWqeJgQUA_3JUvdfC61-2">
          <mxGeometry width="50" height="50" relative="1" as="geometry">
            <mxPoint x="390" y="380" as="sourcePoint" />
            <mxPoint x="440" y="330" as="targetPoint" />
          </mxGeometry>
        </mxCell>
        <mxCell id="QTWqeJgQUA_3JUvdfC61-158" value="" style="endArrow=ERmany;html=1;rounded=0;startArrow=ERmany;startFill=0;endFill=0;exitX=0.25;exitY=0;exitDx=0;exitDy=0;entryX=1;entryY=0.25;entryDx=0;entryDy=0;edgeStyle=orthogonalEdgeStyle;" edge="1" parent="1" target="QTWqeJgQUA_3JUvdfC61-137">
          <mxGeometry width="50" height="50" relative="1" as="geometry">
            <mxPoint x="290" y="470" as="sourcePoint" />
            <mxPoint x="245" y="179" as="targetPoint" />
          </mxGeometry>
        </mxCell>
        <mxCell id="QTWqeJgQUA_3JUvdfC61-159" value="" style="endArrow=ERmany;html=1;rounded=0;startArrow=ERmandOne;startFill=0;endFill=0;entryX=0;entryY=0.133;entryDx=0;entryDy=0;edgeStyle=orthogonalEdgeStyle;entryPerimeter=0;exitX=0.25;exitY=0;exitDx=0;exitDy=0;" edge="1" parent="1" source="QTWqeJgQUA_3JUvdfC61-23" target="QTWqeJgQUA_3JUvdfC61-74">
          <mxGeometry width="50" height="50" relative="1" as="geometry">
            <mxPoint x="300" y="450" as="sourcePoint" />
            <mxPoint x="210" y="493" as="targetPoint" />
            <Array as="points">
              <mxPoint x="335" y="390" />
              <mxPoint x="211" y="390" />
              <mxPoint x="211" y="186" />
            </Array>
          </mxGeometry>
        </mxCell>
        <mxCell id="QTWqeJgQUA_3JUvdfC61-160" value="" style="endArrow=ERmany;html=1;rounded=0;startArrow=ERmandOne;startFill=0;endFill=0;edgeStyle=orthogonalEdgeStyle;" edge="1" parent="1">
          <mxGeometry width="50" height="50" relative="1" as="geometry">
            <mxPoint x="420" y="460" as="sourcePoint" />
            <mxPoint x="430" y="190" as="targetPoint" />
            <Array as="points">
              <mxPoint x="420" y="190" />
              <mxPoint x="430" y="190" />
            </Array>
          </mxGeometry>
        </mxCell>
        <mxCell id="QTWqeJgQUA_3JUvdfC61-162" value="" style="endArrow=ERmandOne;html=1;rounded=0;startArrow=ERmany;startFill=0;endFill=0;entryX=-0.006;entryY=0.15;entryDx=0;entryDy=0;entryPerimeter=0;exitX=1.011;exitY=0.12;exitDx=0;exitDy=0;exitPerimeter=0;" edge="1" parent="1" source="QTWqeJgQUA_3JUvdfC61-23" target="QTWqeJgQUA_3JUvdfC61-57">
          <mxGeometry width="50" height="50" relative="1" as="geometry">
            <mxPoint x="430" y="470" as="sourcePoint" />
            <mxPoint x="440" y="200" as="targetPoint" />
          </mxGeometry>
        </mxCell>
        <mxCell id="QTWqeJgQUA_3JUvdfC61-166" value="" style="endArrow=ERmany;html=1;rounded=0;exitX=0.933;exitY=-0.013;exitDx=0;exitDy=0;startArrow=ERmany;startFill=0;endFill=0;edgeStyle=orthogonalEdgeStyle;exitPerimeter=0;" edge="1" parent="1" source="QTWqeJgQUA_3JUvdfC61-23">
          <mxGeometry width="50" height="50" relative="1" as="geometry">
            <mxPoint x="390" y="380" as="sourcePoint" />
            <mxPoint x="620" y="350" as="targetPoint" />
            <Array as="points">
              <mxPoint x="458" y="350" />
            </Array>
          </mxGeometry>
        </mxCell>
        <mxCell id="QTWqeJgQUA_3JUvdfC61-167" value="" style="endArrow=ERmandOne;html=1;rounded=0;entryX=0;entryY=0.133;entryDx=0;entryDy=0;entryPerimeter=0;exitX=0.072;exitY=-0.022;exitDx=0;exitDy=0;exitPerimeter=0;edgeStyle=orthogonalEdgeStyle;startArrow=ERmany;startFill=0;endFill=0;" edge="1" parent="1" source="QTWqeJgQUA_3JUvdfC61-104" target="QTWqeJgQUA_3JUvdfC61-40">
          <mxGeometry width="50" height="50" relative="1" as="geometry">
            <mxPoint x="390" y="380" as="sourcePoint" />
            <mxPoint x="440" y="330" as="targetPoint" />
          </mxGeometry>
        </mxCell>
      </root>
    </mxGraphModel>
  </diagram>
</mxfile>
